<?xml version="1.0" encoding="UTF-8" standalone="no"?>
<svg
   xmlns:dc="http://purl.org/dc/elements/1.1/"
   xmlns:cc="http://creativecommons.org/ns#"
   xmlns:rdf="http://www.w3.org/1999/02/22-rdf-syntax-ns#"
   xmlns:svg="http://www.w3.org/2000/svg"
   xmlns="http://www.w3.org/2000/svg"
   xmlns:sodipodi="http://sodipodi.sourceforge.net/DTD/sodipodi-0.dtd"
   xmlns:inkscape="http://www.inkscape.org/namespaces/inkscape"
   width="16"
   height="16"
   viewBox="0 0 16 16"
   version="1.1"
   id="svg2"
   inkscape:version="0.91 r13725"
   sodipodi:docname="law.svg">
  <metadata
     id="metadata15">
    <rdf:RDF>
      <cc:Work
         rdf:about="">
        <dc:format>image/svg+xml</dc:format>
        <dc:type
           rdf:resource="http://purl.org/dc/dcmitype/StillImage" />
        <dc:title>law</dc:title>
      </cc:Work>
    </rdf:RDF>
  </metadata>
  <sodipodi:namedview
     pagecolor="#ffffff"
     bordercolor="#666666"
     borderopacity="1"
     objecttolerance="10"
     gridtolerance="10"
     guidetolerance="10"
     inkscape:pageopacity="0"
     inkscape:pageshadow="2"
     inkscape:window-width="1366"
     inkscape:window-height="705"
     id="namedview13"
     showgrid="false"
     inkscape:zoom="31.443798"
     inkscape:cx="7"
     inkscape:cy="7.9322034"
     inkscape:window-x="-8"
     inkscape:window-y="-8"
     inkscape:window-maximized="1"
     inkscape:current-layer="svg2" />
  <!-- Generator: Sketch 40.3 (33839) - http://www.bohemiancoding.com/sketch -->
  <title
     id="title4">law</title>
  <desc
     id="desc6">Created with Sketch.</desc>
  <defs
     id="defs8" />
  <g
     id="Octicons"
     style="fill:none;fill-rule:evenodd;stroke:none;stroke-width:1"
     transform="translate(1,0)">
    <g
       id="law"
       style="fill:#272727">
      <path
         d="M 7,4 C 6.17,4 5.5,3.33 5.5,2.5 5.5,1.67 6.17,1 7,1 7.83,1 8.5,1.67 8.5,2.5 8.5,3.33 7.83,4 7,4 l 0,0 z m 7,6 c 0,1.11 -0.89,2 -2,2 l -1,0 C 9.89,12 9,11.11 9,10 L 11,6 10,6 C 9.45,6 9,5.55 9,5 l -1,0 0,8 c 0.42,0 1,0.45 1,1 l 1,0 c 0.42,0 1,0.45 1,1 l -8,0 c 0,-0.55 0.58,-1 1,-1 l 1,0 C 5,13.45 5.58,13 6,13 L 6.03,13 6,5 5,5 C 5,5.55 4.55,6 4,6 l -1,0 2,4 c 0,1.11 -0.89,2 -2,2 L 2,12 C 0.89,12 0,11.11 0,10 L 2,6 1,6 1,5 4,5 C 4,4.45 4.45,4 5,4 l 4,0 c 0.55,0 1,0.45 1,1 l 3,0 0,1 -1,0 2,4 0,0 z M 2.5,7 1,10 4,10 2.5,7 2.5,7 Z M 13,10 11.5,7 10,10 l 3,0 0,0 z"
         id="Shape"
         inkscape:connector-curvature="0" />
    </g>
  </g>
</svg>
